<svg height='100px' width='100px'  fill="#2d6187" xmlns:x="http://ns.adobe.com/Extensibility/1.0/" xmlns:i="http://ns.adobe.com/AdobeIllustrator/10.0/" xmlns:graph="http://ns.adobe.com/Graphs/1.0/" xmlns="http://www.w3.org/2000/svg" xmlns:xlink="http://www.w3.org/1999/xlink" version="1.1" x="0px" y="0px" viewBox="0 0 116.2 116.2" style="enable-background:new 0 0 116.2 116.2;" xml:space="preserve"><g><g i:extraneous="self"><g><path d="M58.1,0C26,0,0,26,0,58.1c0,32.1,26,58.1,58.1,58.1s58.1-26,58.1-58.1C116.2,26,90.2,0,58.1,0z M81.7,74.6     c-7.8,0-14.6-4.2-18.4-10.4c-4.7,4.4-11,7.1-18,7.1C30.8,71.4,19,59.6,19,45.1c0-14.5,11.8-26.3,26.3-26.3     c11,0,20.4,6.7,24.3,16.3c3.4-2.3,7.6-3.7,12.1-3.7c11.9,0,21.6,9.7,21.6,21.6C103.2,64.9,93.6,74.6,81.7,74.6z"></path><circle cx="61.1" cy="48.5" r="6"></circle><circle cx="76.9" cy="53.2" r="6"></circle></g></g></g></svg>